# xmcd
#
# Track frame offsets: 
#        183
#        17368
#        35970
#
# Disc length: 830 seconds
#
# Revision: 0
# Processed by: cddbd v1.5.2PL0 Copyright (c) Steve Scherf et al.
# Submitted via: ExactAudioCopy v1.3
#
DISCID=1c033c03
DTITLE=Christopher Max - Serious Kinda Girl  [CDS Promo)
DYEAR=1989
DGENRE=R&B
TTITLE0=Serious Kinda Girl  (Single Version)
TTITLE1=Serious Kinda Girl  (Extended Version)
TTITLE2=Serious Kinda Girl  (Club Mix)
EXTD=
EXTT0=
EXTT1=
EXTT2=
PLAYORDER=
